<svg width="73" height="56" viewBox="0 0 73 56" fill="none" xmlns="http://www.w3.org/2000/svg">
<path d="M51.8258 39.561H36.9862C36.5165 39.561 36.0661 39.3744 35.734 39.0423C35.4019 38.7102 35.2153 38.2598 35.2153 37.7901C35.2153 37.3205 35.4019 36.87 35.734 36.538C36.0661 36.2059 36.5165 36.0193 36.9862 36.0193H51.8258C52.2954 36.0193 52.7458 36.2059 53.0779 36.538C53.41 36.87 53.5966 37.3205 53.5966 37.7901C53.5966 38.2598 53.41 38.7102 53.0779 39.0423C52.7458 39.3744 52.2954 39.561 51.8258 39.561Z" fill="#FF4343"/>
<path d="M61.8134 38.463C61.6038 38.5127 61.3855 38.5127 61.1759 38.463C60.9576 38.3843 60.7573 38.2627 60.5869 38.1053C60.4164 37.9479 60.2793 37.7579 60.1835 37.5466C60.0878 37.3353 60.0353 37.1069 60.0294 36.875C60.0234 36.6431 60.064 36.4123 60.1488 36.1963L68.5779 13.6713C68.7448 13.2364 69.0762 12.8848 69.5005 12.6925C69.9247 12.5003 70.4076 12.4829 70.8446 12.6443C71.2829 12.8189 71.6374 13.155 71.8351 13.5833C72.0328 14.0117 72.0586 14.4996 71.9071 14.9463L63.4779 37.3651C63.3352 37.6886 63.1023 37.9641 62.8071 38.1588C62.5119 38.3535 62.1669 38.4591 61.8134 38.463Z" fill="#FF4343"/>
<path d="M25.6529 39.1361C25.2834 39.1388 24.9227 39.0234 24.6233 38.8068C24.3239 38.5902 24.1015 38.2837 23.9883 37.932L12.8675 4.14445H2.24251C1.77286 4.14445 1.32244 3.95788 0.990345 3.62578C0.658249 3.29369 0.47168 2.84327 0.47168 2.37362C0.480747 1.9068 0.670227 1.46163 1.00038 1.13148C1.33053 0.801331 1.7757 0.61185 2.24251 0.602783H14.1425C14.5095 0.610608 14.8653 0.730034 15.1627 0.945155C15.4601 1.16028 15.6848 1.46089 15.8071 1.80695L27.4592 36.7986C27.5368 37.017 27.5699 37.2488 27.5565 37.4802C27.543 37.7116 27.4834 37.9379 27.3811 38.1459C27.2787 38.3539 27.1358 38.5393 26.9606 38.6911C26.7855 38.8429 26.5817 38.9581 26.3613 39.0299C26.1363 39.1186 25.894 39.1549 25.6529 39.1361Z" fill="#FF4343"/>
<path d="M31.1071 55.0735C29.0056 55.0735 26.9514 54.4504 25.2041 53.2829C23.4569 52.1154 22.095 50.456 21.2908 48.5145C20.4867 46.573 20.2762 44.4367 20.6862 42.3757C21.0962 40.3146 22.1081 38.4214 23.594 36.9355C25.08 35.4495 26.9732 34.4376 29.0342 34.0276C31.0953 33.6177 33.2316 33.8281 35.1731 34.6323C37.1145 35.4365 38.7739 36.7983 39.9414 38.5456C41.1089 40.2928 41.7321 42.3471 41.7321 44.4485C41.7321 47.2664 40.6126 49.9689 38.6201 51.9615C36.6275 53.9541 33.925 55.0735 31.1071 55.0735ZM31.1071 37.3652C29.7061 37.3652 28.3366 37.7806 27.1718 38.5589C26.0069 39.3372 25.099 40.4435 24.5629 41.7378C24.0268 43.0321 23.8865 44.4564 24.1598 45.8304C24.4331 47.2044 25.1078 48.4665 26.0984 49.4572C27.089 50.4478 28.3511 51.1224 29.7252 51.3957C31.0992 51.669 32.5234 51.5288 33.8177 50.9926C35.112 50.4565 36.2183 49.5486 36.9966 48.3838C37.775 47.2189 38.1904 45.8495 38.1904 44.4485C38.1904 42.5699 37.4441 40.7682 36.1157 39.4398C34.7874 38.1114 32.9857 37.3652 31.1071 37.3652Z" fill="#FF4343"/>
<path d="M57.7051 55.0735C55.6037 55.0735 53.5494 54.4504 51.8021 53.2829C50.0549 52.1154 48.693 50.456 47.8889 48.5145C47.0847 46.573 46.8743 44.4367 47.2842 42.3757C47.6942 40.3146 48.7061 38.4214 50.1921 36.9355C51.678 35.4495 53.5712 34.4376 55.6322 34.0276C57.6933 33.6177 59.8296 33.8281 61.7711 34.6323C63.7126 35.4365 65.372 36.7983 66.5394 38.5456C67.7069 40.2928 68.3301 42.3471 68.3301 44.4485C68.3301 47.2664 67.2107 49.9689 65.2181 51.9615C63.2255 53.9541 60.523 55.0735 57.7051 55.0735ZM57.7051 37.3652C56.3041 37.3652 54.9346 37.7806 53.7698 38.5589C52.6049 39.3372 51.6971 40.4435 51.1609 41.7378C50.6248 43.0321 50.4845 44.4564 50.7579 45.8304C51.0312 47.2044 51.7058 48.4665 52.6964 49.4572C53.687 50.4478 54.9492 51.1224 56.3232 51.3957C57.6972 51.669 59.1214 51.5288 60.4158 50.9926C61.7101 50.4565 62.8163 49.5486 63.5947 48.3838C64.373 47.2189 64.7884 45.8495 64.7884 44.4485C64.7884 42.5699 64.0421 40.7682 62.7138 39.4398C61.3854 38.1114 59.5837 37.3652 57.7051 37.3652Z" fill="#FF4343"/>
</svg>
