<svg width="66" height="68" viewBox="0 0 66 68" fill="none" xmlns="http://www.w3.org/2000/svg">
<path d="M34.4725 67.643C25.5491 67.643 16.9911 64.0982 10.6813 57.7883C4.37148 51.4785 0.82666 42.9206 0.82666 33.9972C0.82666 25.0737 4.37148 16.5158 10.6813 10.206C16.9911 3.89614 25.5491 0.351318 34.4725 0.351318C34.9421 0.351318 35.3926 0.537888 35.7247 0.869984C36.0568 1.20208 36.2433 1.6525 36.2433 2.12215C36.2433 2.59181 36.0568 3.04222 35.7247 3.37432C35.3926 3.70642 34.9421 3.89298 34.4725 3.89298C29.5059 3.86354 24.6091 5.06339 20.2187 7.38559C15.8283 9.70779 12.0807 13.0802 9.30986 17.2022C6.53904 21.3242 4.83113 26.0677 4.33836 31.0099C3.8456 35.9521 4.58329 40.9394 6.48568 45.5274C8.38807 50.1153 11.3961 54.1613 15.2415 57.3046C19.087 60.448 23.6504 62.5911 28.5251 63.5429C33.3997 64.4946 38.4342 64.2255 43.1796 62.7596C47.925 61.2936 52.234 58.6763 55.7225 55.1409C55.88 54.9545 56.0742 54.8026 56.2932 54.6949C56.5121 54.5871 56.7509 54.5257 56.9947 54.5146C57.2384 54.5035 57.4818 54.5429 57.7097 54.6303C57.9375 54.7177 58.1448 54.8513 58.3185 55.0226C58.4923 55.1939 58.6288 55.3993 58.7194 55.6258C58.8101 55.8524 58.8529 56.0952 58.8452 56.3391C58.8376 56.583 58.7796 56.8227 58.675 57.0431C58.5703 57.2636 58.4212 57.46 58.2371 57.6201C55.1405 60.7858 51.444 63.3027 47.3637 65.0236C43.2833 66.7445 38.9009 67.635 34.4725 67.643Z" fill="#FF4343"/>
<path d="M33.4098 45.3304C33.1801 45.3378 32.9515 45.2976 32.7381 45.2122C32.5248 45.1269 32.3314 44.9983 32.1702 44.8346L18.0035 30.6679C17.8376 30.5033 17.7058 30.3075 17.6159 30.0917C17.526 29.8759 17.4797 29.6444 17.4797 29.4106C17.4797 29.1769 17.526 28.9454 17.6159 28.7296C17.7058 28.5138 17.8376 28.318 18.0035 28.1534C18.3405 27.8266 18.7915 27.6439 19.2608 27.6439C19.7302 27.6439 20.1811 27.8266 20.5181 28.1534L33.4098 41.0804L62.2744 12.2159C62.6078 11.8824 63.0601 11.6951 63.5317 11.6951C64.0033 11.6951 64.4555 11.8824 64.789 12.2159C65.1224 12.5493 65.3098 13.0016 65.3098 13.4731C65.3098 13.9447 65.1224 14.397 64.789 14.7304L34.6848 44.8346C34.5158 44.9977 34.316 45.1255 34.0971 45.2106C33.8782 45.2957 33.6446 45.3365 33.4098 45.3304Z" fill="#FF4343"/>
</svg>
